<mxfile host="app.diagrams.net" modified="2023-12-29T02:58:01.353Z" agent="Mozilla/5.0 (Windows NT 10.0; Win64; x64) AppleWebKit/537.36 (KHTML, like Gecko) Chrome/120.0.0.0 Safari/537.36" etag="zWumJh0VV_lLH3b-iKOW" version="22.1.15" type="device">
  <diagram name="페이지-1" id="aRzWJk-kzTESo5JIVIao">
    <mxGraphModel dx="1434" dy="780" grid="1" gridSize="10" guides="1" tooltips="1" connect="1" arrows="1" fold="1" page="1" pageScale="1" pageWidth="827" pageHeight="1169" background="#ffffff" math="0" shadow="0">
      <root>
        <mxCell id="0" />
        <mxCell id="1" parent="0" />
        <mxCell id="KTU2frp5dFhEqBX76_ss-1" value="Blog" style="shape=umlFrame;whiteSpace=wrap;html=1;pointerEvents=0;" vertex="1" parent="1">
          <mxGeometry x="100" y="170" width="640" height="730" as="geometry" />
        </mxCell>
        <mxCell id="KTU2frp5dFhEqBX76_ss-2" value="관리자" style="shape=umlActor;verticalLabelPosition=bottom;verticalAlign=top;html=1;outlineConnect=0;" vertex="1" parent="1">
          <mxGeometry x="760" y="290" width="30" height="60" as="geometry" />
        </mxCell>
        <mxCell id="KTU2frp5dFhEqBX76_ss-3" value="회원" style="shape=umlActor;verticalLabelPosition=bottom;verticalAlign=top;html=1;outlineConnect=0;" vertex="1" parent="1">
          <mxGeometry x="60" y="400" width="30" height="60" as="geometry" />
        </mxCell>
        <mxCell id="KTU2frp5dFhEqBX76_ss-4" value="비회원" style="shape=umlActor;verticalLabelPosition=bottom;verticalAlign=top;html=1;outlineConnect=0;" vertex="1" parent="1">
          <mxGeometry x="60" y="190" width="30" height="60" as="geometry" />
        </mxCell>
        <mxCell id="KTU2frp5dFhEqBX76_ss-7" value="회원 가입" style="ellipse;whiteSpace=wrap;html=1;" vertex="1" parent="1">
          <mxGeometry x="160" y="200" width="60" height="40" as="geometry" />
        </mxCell>
        <mxCell id="KTU2frp5dFhEqBX76_ss-59" value="" style="edgeStyle=orthogonalEdgeStyle;rounded=0;orthogonalLoop=1;jettySize=auto;html=1;endArrow=block;endFill=0;" edge="1" parent="1" source="KTU2frp5dFhEqBX76_ss-9" target="KTU2frp5dFhEqBX76_ss-48">
          <mxGeometry relative="1" as="geometry">
            <Array as="points">
              <mxPoint x="250" y="480" />
            </Array>
          </mxGeometry>
        </mxCell>
        <mxCell id="KTU2frp5dFhEqBX76_ss-9" value="프로필&lt;br&gt;수정" style="ellipse;whiteSpace=wrap;html=1;" vertex="1" parent="1">
          <mxGeometry x="220" y="490" width="60" height="40" as="geometry" />
        </mxCell>
        <mxCell id="KTU2frp5dFhEqBX76_ss-63" value="" style="edgeStyle=orthogonalEdgeStyle;rounded=0;orthogonalLoop=1;jettySize=auto;html=1;endArrow=block;endFill=0;" edge="1" parent="1" source="KTU2frp5dFhEqBX76_ss-10" target="KTU2frp5dFhEqBX76_ss-48">
          <mxGeometry relative="1" as="geometry" />
        </mxCell>
        <mxCell id="KTU2frp5dFhEqBX76_ss-10" value="회원 탈퇴" style="ellipse;whiteSpace=wrap;html=1;" vertex="1" parent="1">
          <mxGeometry x="280" y="490" width="60" height="40" as="geometry" />
        </mxCell>
        <mxCell id="KTU2frp5dFhEqBX76_ss-15" value="" style="endArrow=none;html=1;rounded=0;exitX=0.5;exitY=0.5;exitDx=0;exitDy=0;exitPerimeter=0;" edge="1" parent="1" source="KTU2frp5dFhEqBX76_ss-4" target="KTU2frp5dFhEqBX76_ss-7">
          <mxGeometry width="50" height="50" relative="1" as="geometry">
            <mxPoint x="390" y="430" as="sourcePoint" />
            <mxPoint x="440" y="380" as="targetPoint" />
          </mxGeometry>
        </mxCell>
        <mxCell id="KTU2frp5dFhEqBX76_ss-17" value="use" style="edgeLabel;html=1;align=center;verticalAlign=middle;resizable=0;points=[];" vertex="1" connectable="0" parent="KTU2frp5dFhEqBX76_ss-15">
          <mxGeometry x="-0.0353" y="-1" relative="1" as="geometry">
            <mxPoint as="offset" />
          </mxGeometry>
        </mxCell>
        <mxCell id="KTU2frp5dFhEqBX76_ss-18" value="사용자&lt;br&gt;&amp;nbsp;인증" style="ellipse;whiteSpace=wrap;html=1;" vertex="1" parent="1">
          <mxGeometry x="370" y="340" width="60" height="40" as="geometry" />
        </mxCell>
        <mxCell id="KTU2frp5dFhEqBX76_ss-66" value="" style="edgeStyle=orthogonalEdgeStyle;rounded=0;orthogonalLoop=1;jettySize=auto;html=1;endArrow=block;endFill=0;" edge="1" parent="1" source="KTU2frp5dFhEqBX76_ss-23" target="KTU2frp5dFhEqBX76_ss-49">
          <mxGeometry relative="1" as="geometry">
            <Array as="points">
              <mxPoint x="190" y="640" />
              <mxPoint x="250" y="640" />
            </Array>
          </mxGeometry>
        </mxCell>
        <mxCell id="KTU2frp5dFhEqBX76_ss-23" value="글 작성" style="ellipse;whiteSpace=wrap;html=1;" vertex="1" parent="1">
          <mxGeometry x="160" y="660" width="60" height="40" as="geometry" />
        </mxCell>
        <mxCell id="KTU2frp5dFhEqBX76_ss-24" value="글 조회" style="ellipse;whiteSpace=wrap;html=1;" vertex="1" parent="1">
          <mxGeometry x="160" y="250" width="60" height="40" as="geometry" />
        </mxCell>
        <mxCell id="KTU2frp5dFhEqBX76_ss-67" value="" style="edgeStyle=orthogonalEdgeStyle;rounded=0;orthogonalLoop=1;jettySize=auto;html=1;entryX=0.5;entryY=1;entryDx=0;entryDy=0;endArrow=block;endFill=0;" edge="1" parent="1" source="KTU2frp5dFhEqBX76_ss-25" target="KTU2frp5dFhEqBX76_ss-49">
          <mxGeometry relative="1" as="geometry" />
        </mxCell>
        <mxCell id="KTU2frp5dFhEqBX76_ss-25" value="글 수정" style="ellipse;whiteSpace=wrap;html=1;" vertex="1" parent="1">
          <mxGeometry x="220" y="660" width="60" height="40" as="geometry" />
        </mxCell>
        <mxCell id="KTU2frp5dFhEqBX76_ss-26" value="글 삭제" style="ellipse;whiteSpace=wrap;html=1;" vertex="1" parent="1">
          <mxGeometry x="280" y="660" width="60" height="40" as="geometry" />
        </mxCell>
        <mxCell id="KTU2frp5dFhEqBX76_ss-71" value="" style="edgeStyle=orthogonalEdgeStyle;rounded=0;orthogonalLoop=1;jettySize=auto;html=1;endArrow=block;endFill=0;" edge="1" parent="1" source="KTU2frp5dFhEqBX76_ss-27" target="KTU2frp5dFhEqBX76_ss-50">
          <mxGeometry relative="1" as="geometry">
            <Array as="points">
              <mxPoint x="184" y="790" />
              <mxPoint x="250" y="790" />
            </Array>
          </mxGeometry>
        </mxCell>
        <mxCell id="KTU2frp5dFhEqBX76_ss-27" value="댓글 작성" style="ellipse;whiteSpace=wrap;html=1;" vertex="1" parent="1">
          <mxGeometry x="154" y="810" width="60" height="40" as="geometry" />
        </mxCell>
        <mxCell id="KTU2frp5dFhEqBX76_ss-28" value="댓글 조회" style="ellipse;whiteSpace=wrap;html=1;" vertex="1" parent="1">
          <mxGeometry x="160" y="300" width="60" height="40" as="geometry" />
        </mxCell>
        <mxCell id="KTU2frp5dFhEqBX76_ss-72" value="" style="edgeStyle=orthogonalEdgeStyle;rounded=0;orthogonalLoop=1;jettySize=auto;html=1;entryX=0.5;entryY=1;entryDx=0;entryDy=0;endArrow=block;endFill=0;" edge="1" parent="1" source="KTU2frp5dFhEqBX76_ss-29" target="KTU2frp5dFhEqBX76_ss-50">
          <mxGeometry relative="1" as="geometry">
            <Array as="points" />
          </mxGeometry>
        </mxCell>
        <mxCell id="KTU2frp5dFhEqBX76_ss-29" value="댓글 수정" style="ellipse;whiteSpace=wrap;html=1;" vertex="1" parent="1">
          <mxGeometry x="220" y="810" width="60" height="40" as="geometry" />
        </mxCell>
        <mxCell id="KTU2frp5dFhEqBX76_ss-73" value="" style="edgeStyle=orthogonalEdgeStyle;rounded=0;orthogonalLoop=1;jettySize=auto;html=1;endArrow=block;endFill=0;" edge="1" parent="1" source="KTU2frp5dFhEqBX76_ss-30" target="KTU2frp5dFhEqBX76_ss-50">
          <mxGeometry relative="1" as="geometry">
            <Array as="points">
              <mxPoint x="310" y="790" />
              <mxPoint x="250" y="790" />
            </Array>
          </mxGeometry>
        </mxCell>
        <mxCell id="KTU2frp5dFhEqBX76_ss-30" value="댓글 삭제" style="ellipse;whiteSpace=wrap;html=1;" vertex="1" parent="1">
          <mxGeometry x="280" y="810" width="60" height="40" as="geometry" />
        </mxCell>
        <mxCell id="KTU2frp5dFhEqBX76_ss-38" value="" style="endArrow=none;html=1;rounded=0;entryX=0;entryY=0.5;entryDx=0;entryDy=0;" edge="1" parent="1" source="KTU2frp5dFhEqBX76_ss-4" target="KTU2frp5dFhEqBX76_ss-24">
          <mxGeometry width="50" height="50" relative="1" as="geometry">
            <mxPoint x="90" y="300" as="sourcePoint" />
            <mxPoint x="140" y="250" as="targetPoint" />
            <Array as="points">
              <mxPoint x="130" y="220" />
              <mxPoint x="130" y="270" />
            </Array>
          </mxGeometry>
        </mxCell>
        <mxCell id="KTU2frp5dFhEqBX76_ss-39" value="" style="endArrow=none;html=1;rounded=0;entryX=0;entryY=0.5;entryDx=0;entryDy=0;exitX=0.5;exitY=0.5;exitDx=0;exitDy=0;exitPerimeter=0;" edge="1" parent="1" source="KTU2frp5dFhEqBX76_ss-4" target="KTU2frp5dFhEqBX76_ss-28">
          <mxGeometry width="50" height="50" relative="1" as="geometry">
            <mxPoint x="100" y="239" as="sourcePoint" />
            <mxPoint x="170" y="280" as="targetPoint" />
            <Array as="points">
              <mxPoint x="130" y="220" />
              <mxPoint x="130" y="320" />
            </Array>
          </mxGeometry>
        </mxCell>
        <mxCell id="KTU2frp5dFhEqBX76_ss-42" value="" style="endArrow=none;html=1;rounded=0;entryX=0;entryY=0.5;entryDx=0;entryDy=0;exitX=0.5;exitY=0;exitDx=0;exitDy=0;exitPerimeter=0;" edge="1" parent="1" source="KTU2frp5dFhEqBX76_ss-3" target="KTU2frp5dFhEqBX76_ss-28">
          <mxGeometry width="50" height="50" relative="1" as="geometry">
            <mxPoint x="100" y="450" as="sourcePoint" />
            <mxPoint x="30" y="300" as="targetPoint" />
            <Array as="points">
              <mxPoint x="75" y="320" />
            </Array>
          </mxGeometry>
        </mxCell>
        <mxCell id="KTU2frp5dFhEqBX76_ss-44" value="" style="endArrow=none;html=1;rounded=0;entryX=0;entryY=0.5;entryDx=0;entryDy=0;exitX=0.5;exitY=0;exitDx=0;exitDy=0;exitPerimeter=0;" edge="1" parent="1" source="KTU2frp5dFhEqBX76_ss-3" target="KTU2frp5dFhEqBX76_ss-24">
          <mxGeometry width="50" height="50" relative="1" as="geometry">
            <mxPoint x="85" y="420" as="sourcePoint" />
            <mxPoint x="170" y="330" as="targetPoint" />
            <Array as="points">
              <mxPoint x="75" y="320" />
            </Array>
          </mxGeometry>
        </mxCell>
        <mxCell id="KTU2frp5dFhEqBX76_ss-107" value="use" style="edgeLabel;html=1;align=center;verticalAlign=middle;resizable=0;points=[];" vertex="1" connectable="0" parent="KTU2frp5dFhEqBX76_ss-44">
          <mxGeometry x="-0.5633" y="-2" relative="1" as="geometry">
            <mxPoint as="offset" />
          </mxGeometry>
        </mxCell>
        <mxCell id="KTU2frp5dFhEqBX76_ss-46" value="" style="endArrow=open;dashed=1;html=1;rounded=0;entryX=0.5;entryY=1;entryDx=0;entryDy=0;exitX=1;exitY=0.5;exitDx=0;exitDy=0;endFill=0;" edge="1" parent="1" source="KTU2frp5dFhEqBX76_ss-48" target="KTU2frp5dFhEqBX76_ss-18">
          <mxGeometry width="50" height="50" relative="1" as="geometry">
            <mxPoint x="375" y="490" as="sourcePoint" />
            <mxPoint x="425" y="440" as="targetPoint" />
            <Array as="points">
              <mxPoint x="400" y="430" />
            </Array>
          </mxGeometry>
        </mxCell>
        <mxCell id="KTU2frp5dFhEqBX76_ss-48" value="프로필" style="ellipse;whiteSpace=wrap;html=1;" vertex="1" parent="1">
          <mxGeometry x="220" y="410" width="60" height="40" as="geometry" />
        </mxCell>
        <mxCell id="KTU2frp5dFhEqBX76_ss-49" value="글 권한" style="ellipse;whiteSpace=wrap;html=1;" vertex="1" parent="1">
          <mxGeometry x="220" y="570" width="60" height="40" as="geometry" />
        </mxCell>
        <mxCell id="KTU2frp5dFhEqBX76_ss-50" value="댓글 권한" style="ellipse;whiteSpace=wrap;html=1;" vertex="1" parent="1">
          <mxGeometry x="220" y="730" width="60" height="40" as="geometry" />
        </mxCell>
        <mxCell id="KTU2frp5dFhEqBX76_ss-58" value="" style="edgeStyle=orthogonalEdgeStyle;rounded=0;orthogonalLoop=1;jettySize=auto;html=1;endArrow=block;endFill=0;" edge="1" parent="1" source="KTU2frp5dFhEqBX76_ss-8" target="KTU2frp5dFhEqBX76_ss-48">
          <mxGeometry relative="1" as="geometry" />
        </mxCell>
        <mxCell id="KTU2frp5dFhEqBX76_ss-8" value="프로필 &lt;br&gt;조회" style="ellipse;whiteSpace=wrap;html=1;" vertex="1" parent="1">
          <mxGeometry x="160" y="490" width="60" height="40" as="geometry" />
        </mxCell>
        <mxCell id="KTU2frp5dFhEqBX76_ss-65" value="" style="endArrow=none;html=1;rounded=0;exitX=0.5;exitY=0.5;exitDx=0;exitDy=0;exitPerimeter=0;" edge="1" parent="1" source="KTU2frp5dFhEqBX76_ss-3" target="KTU2frp5dFhEqBX76_ss-48">
          <mxGeometry width="50" height="50" relative="1" as="geometry">
            <mxPoint x="390" y="500" as="sourcePoint" />
            <mxPoint x="440" y="450" as="targetPoint" />
          </mxGeometry>
        </mxCell>
        <mxCell id="KTU2frp5dFhEqBX76_ss-74" value="" style="endArrow=open;dashed=1;html=1;rounded=0;entryX=0.5;entryY=1;entryDx=0;entryDy=0;exitX=1;exitY=0.5;exitDx=0;exitDy=0;endFill=0;" edge="1" parent="1" source="KTU2frp5dFhEqBX76_ss-49" target="KTU2frp5dFhEqBX76_ss-18">
          <mxGeometry width="50" height="50" relative="1" as="geometry">
            <mxPoint x="290" y="440" as="sourcePoint" />
            <mxPoint x="410" y="390" as="targetPoint" />
            <Array as="points">
              <mxPoint x="400" y="590" />
            </Array>
          </mxGeometry>
        </mxCell>
        <mxCell id="KTU2frp5dFhEqBX76_ss-75" value="" style="endArrow=open;dashed=1;html=1;rounded=0;exitX=1;exitY=0.5;exitDx=0;exitDy=0;endFill=0;" edge="1" parent="1" source="KTU2frp5dFhEqBX76_ss-50">
          <mxGeometry width="50" height="50" relative="1" as="geometry">
            <mxPoint x="290" y="600" as="sourcePoint" />
            <mxPoint x="400" y="380" as="targetPoint" />
            <Array as="points">
              <mxPoint x="400" y="750" />
            </Array>
          </mxGeometry>
        </mxCell>
        <mxCell id="KTU2frp5dFhEqBX76_ss-78" value="&amp;lt;&amp;lt;include&amp;gt;&amp;gt;" style="edgeLabel;html=1;align=center;verticalAlign=middle;resizable=0;points=[];" vertex="1" connectable="0" parent="KTU2frp5dFhEqBX76_ss-75">
          <mxGeometry x="0.8625" y="1" relative="1" as="geometry">
            <mxPoint as="offset" />
          </mxGeometry>
        </mxCell>
        <mxCell id="KTU2frp5dFhEqBX76_ss-76" value="" style="endArrow=none;html=1;rounded=0;exitX=0.5;exitY=0.5;exitDx=0;exitDy=0;exitPerimeter=0;entryX=0;entryY=0.5;entryDx=0;entryDy=0;" edge="1" parent="1" source="KTU2frp5dFhEqBX76_ss-3" target="KTU2frp5dFhEqBX76_ss-49">
          <mxGeometry width="50" height="50" relative="1" as="geometry">
            <mxPoint x="85" y="440" as="sourcePoint" />
            <mxPoint x="230" y="440" as="targetPoint" />
            <Array as="points">
              <mxPoint x="120" y="430" />
              <mxPoint x="120" y="590" />
            </Array>
          </mxGeometry>
        </mxCell>
        <mxCell id="KTU2frp5dFhEqBX76_ss-77" value="" style="endArrow=none;html=1;rounded=0;exitX=0.5;exitY=0.5;exitDx=0;exitDy=0;exitPerimeter=0;entryX=0;entryY=0.5;entryDx=0;entryDy=0;" edge="1" parent="1" source="KTU2frp5dFhEqBX76_ss-3" target="KTU2frp5dFhEqBX76_ss-50">
          <mxGeometry width="50" height="50" relative="1" as="geometry">
            <mxPoint x="85" y="440" as="sourcePoint" />
            <mxPoint x="230" y="600" as="targetPoint" />
            <Array as="points">
              <mxPoint x="120" y="430" />
              <mxPoint x="120" y="750" />
            </Array>
          </mxGeometry>
        </mxCell>
        <mxCell id="KTU2frp5dFhEqBX76_ss-79" value="use" style="edgeLabel;html=1;align=center;verticalAlign=middle;resizable=0;points=[];" vertex="1" connectable="0" parent="KTU2frp5dFhEqBX76_ss-77">
          <mxGeometry x="-0.8549" y="1" relative="1" as="geometry">
            <mxPoint as="offset" />
          </mxGeometry>
        </mxCell>
        <mxCell id="KTU2frp5dFhEqBX76_ss-80" value="회원 관리" style="ellipse;whiteSpace=wrap;html=1;" vertex="1" parent="1">
          <mxGeometry x="570" y="250" width="60" height="40" as="geometry" />
        </mxCell>
        <mxCell id="KTU2frp5dFhEqBX76_ss-81" value="글 관리" style="ellipse;whiteSpace=wrap;html=1;" vertex="1" parent="1">
          <mxGeometry x="570" y="390" width="60" height="40" as="geometry" />
        </mxCell>
        <mxCell id="KTU2frp5dFhEqBX76_ss-82" value="댓글 관리" style="ellipse;whiteSpace=wrap;html=1;" vertex="1" parent="1">
          <mxGeometry x="580" y="520" width="60" height="40" as="geometry" />
        </mxCell>
        <mxCell id="KTU2frp5dFhEqBX76_ss-90" value="" style="edgeStyle=orthogonalEdgeStyle;rounded=0;orthogonalLoop=1;jettySize=auto;html=1;endArrow=block;endFill=0;" edge="1" parent="1" source="KTU2frp5dFhEqBX76_ss-84" target="KTU2frp5dFhEqBX76_ss-80">
          <mxGeometry relative="1" as="geometry" />
        </mxCell>
        <mxCell id="KTU2frp5dFhEqBX76_ss-84" value="회원 조회" style="ellipse;whiteSpace=wrap;html=1;" vertex="1" parent="1">
          <mxGeometry x="530" y="330" width="60" height="40" as="geometry" />
        </mxCell>
        <mxCell id="KTU2frp5dFhEqBX76_ss-91" value="" style="edgeStyle=orthogonalEdgeStyle;rounded=0;orthogonalLoop=1;jettySize=auto;html=1;endArrow=block;endFill=0;" edge="1" parent="1" source="KTU2frp5dFhEqBX76_ss-85" target="KTU2frp5dFhEqBX76_ss-80">
          <mxGeometry relative="1" as="geometry" />
        </mxCell>
        <mxCell id="KTU2frp5dFhEqBX76_ss-85" value="회원 수정" style="ellipse;whiteSpace=wrap;html=1;" vertex="1" parent="1">
          <mxGeometry x="600" y="330" width="60" height="40" as="geometry" />
        </mxCell>
        <mxCell id="KTU2frp5dFhEqBX76_ss-93" value="" style="edgeStyle=orthogonalEdgeStyle;rounded=0;orthogonalLoop=1;jettySize=auto;html=1;entryX=0.5;entryY=1;entryDx=0;entryDy=0;endArrow=block;endFill=0;" edge="1" parent="1" source="KTU2frp5dFhEqBX76_ss-86" target="KTU2frp5dFhEqBX76_ss-81">
          <mxGeometry relative="1" as="geometry">
            <Array as="points">
              <mxPoint x="560" y="450" />
              <mxPoint x="600" y="450" />
            </Array>
          </mxGeometry>
        </mxCell>
        <mxCell id="KTU2frp5dFhEqBX76_ss-86" value="글 조회" style="ellipse;whiteSpace=wrap;html=1;" vertex="1" parent="1">
          <mxGeometry x="530" y="460" width="60" height="40" as="geometry" />
        </mxCell>
        <mxCell id="KTU2frp5dFhEqBX76_ss-92" value="" style="edgeStyle=orthogonalEdgeStyle;rounded=0;orthogonalLoop=1;jettySize=auto;html=1;entryX=0.5;entryY=1;entryDx=0;entryDy=0;endArrow=block;endFill=0;" edge="1" parent="1" source="KTU2frp5dFhEqBX76_ss-87" target="KTU2frp5dFhEqBX76_ss-81">
          <mxGeometry relative="1" as="geometry">
            <Array as="points">
              <mxPoint x="640" y="450" />
              <mxPoint x="600" y="450" />
            </Array>
          </mxGeometry>
        </mxCell>
        <mxCell id="KTU2frp5dFhEqBX76_ss-87" value="글 삭제" style="ellipse;whiteSpace=wrap;html=1;" vertex="1" parent="1">
          <mxGeometry x="610" y="460" width="60" height="40" as="geometry" />
        </mxCell>
        <mxCell id="KTU2frp5dFhEqBX76_ss-94" value="" style="edgeStyle=orthogonalEdgeStyle;rounded=0;orthogonalLoop=1;jettySize=auto;html=1;entryX=0.5;entryY=1;entryDx=0;entryDy=0;endArrow=block;endFill=0;" edge="1" parent="1" source="KTU2frp5dFhEqBX76_ss-88" target="KTU2frp5dFhEqBX76_ss-82">
          <mxGeometry relative="1" as="geometry" />
        </mxCell>
        <mxCell id="KTU2frp5dFhEqBX76_ss-88" value="댓글 조회" style="ellipse;whiteSpace=wrap;html=1;" vertex="1" parent="1">
          <mxGeometry x="540" y="600" width="60" height="40" as="geometry" />
        </mxCell>
        <mxCell id="KTU2frp5dFhEqBX76_ss-95" value="" style="edgeStyle=orthogonalEdgeStyle;rounded=0;orthogonalLoop=1;jettySize=auto;html=1;endArrow=block;endFill=0;" edge="1" parent="1" source="KTU2frp5dFhEqBX76_ss-89" target="KTU2frp5dFhEqBX76_ss-82">
          <mxGeometry relative="1" as="geometry" />
        </mxCell>
        <mxCell id="KTU2frp5dFhEqBX76_ss-89" value="댓글 삭제" style="ellipse;whiteSpace=wrap;html=1;" vertex="1" parent="1">
          <mxGeometry x="620" y="600" width="60" height="40" as="geometry" />
        </mxCell>
        <mxCell id="KTU2frp5dFhEqBX76_ss-96" value="" style="endArrow=open;dashed=1;html=1;rounded=0;entryX=1;entryY=0.5;entryDx=0;entryDy=0;exitX=0;exitY=0.5;exitDx=0;exitDy=0;endFill=0;" edge="1" parent="1" source="KTU2frp5dFhEqBX76_ss-80" target="KTU2frp5dFhEqBX76_ss-18">
          <mxGeometry width="50" height="50" relative="1" as="geometry">
            <mxPoint x="290" y="440" as="sourcePoint" />
            <mxPoint x="410" y="390" as="targetPoint" />
            <Array as="points">
              <mxPoint x="500" y="270" />
              <mxPoint x="500" y="360" />
            </Array>
          </mxGeometry>
        </mxCell>
        <mxCell id="KTU2frp5dFhEqBX76_ss-97" value="" style="endArrow=open;dashed=1;html=1;rounded=0;exitX=0;exitY=0.5;exitDx=0;exitDy=0;endFill=0;entryX=1;entryY=0.5;entryDx=0;entryDy=0;" edge="1" parent="1" source="KTU2frp5dFhEqBX76_ss-81" target="KTU2frp5dFhEqBX76_ss-18">
          <mxGeometry width="50" height="50" relative="1" as="geometry">
            <mxPoint x="580" y="280" as="sourcePoint" />
            <mxPoint x="420" y="400" as="targetPoint" />
            <Array as="points">
              <mxPoint x="500" y="410" />
              <mxPoint x="500" y="360" />
            </Array>
          </mxGeometry>
        </mxCell>
        <mxCell id="KTU2frp5dFhEqBX76_ss-98" value="" style="endArrow=open;dashed=1;html=1;rounded=0;exitX=0;exitY=0.5;exitDx=0;exitDy=0;endFill=0;entryX=1;entryY=0.5;entryDx=0;entryDy=0;" edge="1" parent="1" source="KTU2frp5dFhEqBX76_ss-82" target="KTU2frp5dFhEqBX76_ss-18">
          <mxGeometry width="50" height="50" relative="1" as="geometry">
            <mxPoint x="580" y="420" as="sourcePoint" />
            <mxPoint x="440" y="370" as="targetPoint" />
            <Array as="points">
              <mxPoint x="500" y="540" />
              <mxPoint x="500" y="360" />
            </Array>
          </mxGeometry>
        </mxCell>
        <mxCell id="KTU2frp5dFhEqBX76_ss-99" value="&amp;lt;&amp;lt;include&amp;gt;&amp;gt;" style="edgeLabel;html=1;align=center;verticalAlign=middle;resizable=0;points=[];" vertex="1" connectable="0" parent="KTU2frp5dFhEqBX76_ss-98">
          <mxGeometry x="0.7818" y="-4" relative="1" as="geometry">
            <mxPoint x="24" y="4" as="offset" />
          </mxGeometry>
        </mxCell>
        <mxCell id="KTU2frp5dFhEqBX76_ss-102" value="" style="edgeStyle=orthogonalEdgeStyle;rounded=0;orthogonalLoop=1;jettySize=auto;html=1;endArrow=block;endFill=0;entryX=0.5;entryY=1;entryDx=0;entryDy=0;exitX=0.5;exitY=0;exitDx=0;exitDy=0;" edge="1" parent="1" source="KTU2frp5dFhEqBX76_ss-26" target="KTU2frp5dFhEqBX76_ss-49">
          <mxGeometry relative="1" as="geometry">
            <mxPoint x="320" y="660" as="sourcePoint" />
            <mxPoint x="380" y="610" as="targetPoint" />
            <Array as="points">
              <mxPoint x="310" y="640" />
              <mxPoint x="250" y="640" />
            </Array>
          </mxGeometry>
        </mxCell>
        <mxCell id="KTU2frp5dFhEqBX76_ss-103" value="" style="endArrow=none;html=1;rounded=0;entryX=0.5;entryY=0.5;entryDx=0;entryDy=0;exitX=1;exitY=0.5;exitDx=0;exitDy=0;entryPerimeter=0;" edge="1" parent="1" source="KTU2frp5dFhEqBX76_ss-80" target="KTU2frp5dFhEqBX76_ss-2">
          <mxGeometry width="50" height="50" relative="1" as="geometry">
            <mxPoint x="680" y="400" as="sourcePoint" />
            <mxPoint x="765" y="320" as="targetPoint" />
            <Array as="points">
              <mxPoint x="710" y="270" />
              <mxPoint x="710" y="320" />
            </Array>
          </mxGeometry>
        </mxCell>
        <mxCell id="KTU2frp5dFhEqBX76_ss-104" value="" style="endArrow=none;html=1;rounded=0;entryX=0.5;entryY=0.5;entryDx=0;entryDy=0;exitX=1;exitY=0.5;exitDx=0;exitDy=0;entryPerimeter=0;" edge="1" parent="1" source="KTU2frp5dFhEqBX76_ss-81" target="KTU2frp5dFhEqBX76_ss-2">
          <mxGeometry width="50" height="50" relative="1" as="geometry">
            <mxPoint x="640" y="280" as="sourcePoint" />
            <mxPoint x="785" y="330" as="targetPoint" />
            <Array as="points">
              <mxPoint x="710" y="410" />
              <mxPoint x="710" y="320" />
            </Array>
          </mxGeometry>
        </mxCell>
        <mxCell id="KTU2frp5dFhEqBX76_ss-105" value="" style="endArrow=none;html=1;rounded=0;exitX=1;exitY=0.5;exitDx=0;exitDy=0;entryX=0.5;entryY=0.5;entryDx=0;entryDy=0;entryPerimeter=0;" edge="1" parent="1" source="KTU2frp5dFhEqBX76_ss-82" target="KTU2frp5dFhEqBX76_ss-2">
          <mxGeometry width="50" height="50" relative="1" as="geometry">
            <mxPoint x="640" y="420" as="sourcePoint" />
            <mxPoint x="785" y="330" as="targetPoint" />
            <Array as="points">
              <mxPoint x="710" y="540" />
              <mxPoint x="710" y="320" />
            </Array>
          </mxGeometry>
        </mxCell>
        <mxCell id="KTU2frp5dFhEqBX76_ss-106" value="use" style="edgeLabel;html=1;align=center;verticalAlign=middle;resizable=0;points=[];" vertex="1" connectable="0" parent="KTU2frp5dFhEqBX76_ss-105">
          <mxGeometry x="0.7465" y="-3" relative="1" as="geometry">
            <mxPoint x="-10" y="-3" as="offset" />
          </mxGeometry>
        </mxCell>
        <mxCell id="KTU2frp5dFhEqBX76_ss-108" value="이미지&lt;br&gt;업로드" style="ellipse;whiteSpace=wrap;html=1;" vertex="1" parent="1">
          <mxGeometry x="610" y="760" width="60" height="40" as="geometry" />
        </mxCell>
        <mxCell id="KTU2frp5dFhEqBX76_ss-109" value="" style="endArrow=none;dashed=1;html=1;rounded=0;endFill=0;startArrow=open;startFill=0;" edge="1" parent="1" target="KTU2frp5dFhEqBX76_ss-108">
          <mxGeometry width="50" height="50" relative="1" as="geometry">
            <mxPoint x="250" y="850" as="sourcePoint" />
            <mxPoint x="440" y="490" as="targetPoint" />
            <Array as="points">
              <mxPoint x="250" y="870" />
              <mxPoint x="500" y="870" />
              <mxPoint x="640" y="870" />
            </Array>
          </mxGeometry>
        </mxCell>
        <mxCell id="KTU2frp5dFhEqBX76_ss-112" value="" style="endArrow=none;dashed=1;html=1;rounded=0;endFill=0;startArrow=open;startFill=0;entryX=0.5;entryY=1;entryDx=0;entryDy=0;" edge="1" parent="1" target="KTU2frp5dFhEqBX76_ss-108">
          <mxGeometry width="50" height="50" relative="1" as="geometry">
            <mxPoint x="190" y="850" as="sourcePoint" />
            <mxPoint x="570" y="790" as="targetPoint" />
            <Array as="points">
              <mxPoint x="190" y="870" />
              <mxPoint x="500" y="870" />
              <mxPoint x="640" y="870" />
            </Array>
          </mxGeometry>
        </mxCell>
        <mxCell id="KTU2frp5dFhEqBX76_ss-113" value="" style="endArrow=none;dashed=1;html=1;rounded=0;endFill=0;startArrow=open;startFill=0;exitX=0.5;exitY=1;exitDx=0;exitDy=0;entryX=0.5;entryY=0;entryDx=0;entryDy=0;" edge="1" parent="1" source="KTU2frp5dFhEqBX76_ss-25" target="KTU2frp5dFhEqBX76_ss-108">
          <mxGeometry width="50" height="50" relative="1" as="geometry">
            <mxPoint x="194" y="860" as="sourcePoint" />
            <mxPoint x="570" y="790" as="targetPoint" />
            <Array as="points">
              <mxPoint x="250" y="720" />
              <mxPoint x="500" y="720" />
              <mxPoint x="640" y="720" />
            </Array>
          </mxGeometry>
        </mxCell>
        <mxCell id="KTU2frp5dFhEqBX76_ss-114" value="" style="endArrow=none;dashed=1;html=1;rounded=0;endFill=0;startArrow=open;startFill=0;exitX=0.5;exitY=1;exitDx=0;exitDy=0;entryX=0.5;entryY=0;entryDx=0;entryDy=0;" edge="1" parent="1" source="KTU2frp5dFhEqBX76_ss-23" target="KTU2frp5dFhEqBX76_ss-108">
          <mxGeometry width="50" height="50" relative="1" as="geometry">
            <mxPoint x="260" y="710" as="sourcePoint" />
            <mxPoint x="560" y="780" as="targetPoint" />
            <Array as="points">
              <mxPoint x="190" y="720" />
              <mxPoint x="500" y="720" />
              <mxPoint x="640" y="720" />
            </Array>
          </mxGeometry>
        </mxCell>
        <mxCell id="KTU2frp5dFhEqBX76_ss-115" value="" style="endArrow=none;dashed=1;html=1;rounded=0;endFill=0;startArrow=open;startFill=0;exitX=0.5;exitY=1;exitDx=0;exitDy=0;entryX=0;entryY=0;entryDx=0;entryDy=0;" edge="1" parent="1" source="KTU2frp5dFhEqBX76_ss-9" target="KTU2frp5dFhEqBX76_ss-108">
          <mxGeometry width="50" height="50" relative="1" as="geometry">
            <mxPoint x="200" y="710" as="sourcePoint" />
            <mxPoint x="570" y="790" as="targetPoint" />
            <Array as="points">
              <mxPoint x="250" y="560" />
              <mxPoint x="500" y="560" />
              <mxPoint x="500" y="740" />
              <mxPoint x="619" y="740" />
            </Array>
          </mxGeometry>
        </mxCell>
        <mxCell id="KTU2frp5dFhEqBX76_ss-116" value="" style="endArrow=none;dashed=1;html=1;rounded=0;endFill=0;startArrow=open;startFill=0;exitX=0.5;exitY=1;exitDx=0;exitDy=0;entryX=0;entryY=0;entryDx=0;entryDy=0;" edge="1" parent="1" source="KTU2frp5dFhEqBX76_ss-8" target="KTU2frp5dFhEqBX76_ss-108">
          <mxGeometry width="50" height="50" relative="1" as="geometry">
            <mxPoint x="260" y="540" as="sourcePoint" />
            <mxPoint x="610" y="780" as="targetPoint" />
            <Array as="points">
              <mxPoint x="190" y="560" />
              <mxPoint x="500" y="560" />
              <mxPoint x="500" y="740" />
              <mxPoint x="619" y="740" />
            </Array>
          </mxGeometry>
        </mxCell>
        <mxCell id="KTU2frp5dFhEqBX76_ss-117" value="&amp;lt;&amp;lt;extend&amp;gt;&amp;gt;" style="edgeLabel;html=1;align=center;verticalAlign=middle;resizable=0;points=[];" vertex="1" connectable="0" parent="KTU2frp5dFhEqBX76_ss-116">
          <mxGeometry x="0.8774" relative="1" as="geometry">
            <mxPoint x="36" y="100" as="offset" />
          </mxGeometry>
        </mxCell>
        <mxCell id="KTU2frp5dFhEqBX76_ss-122" value="&amp;lt;&amp;lt;extend&amp;gt;&amp;gt;" style="edgeLabel;html=1;align=center;verticalAlign=middle;resizable=0;points=[];" vertex="1" connectable="0" parent="1">
          <mxGeometry x="560" y="740" as="geometry" />
        </mxCell>
        <mxCell id="KTU2frp5dFhEqBX76_ss-123" value="&amp;lt;&amp;lt;extend&amp;gt;&amp;gt;" style="edgeLabel;html=1;align=center;verticalAlign=middle;resizable=0;points=[];" vertex="1" connectable="0" parent="1">
          <mxGeometry x="600" y="720" as="geometry" />
        </mxCell>
      </root>
    </mxGraphModel>
  </diagram>
</mxfile>
